<?xml version="1.0" standalone="no"?>
<!DOCTYPE svg PUBLIC "-//W3C//DTD SVG 20010904//EN"
 "http://www.w3.org/TR/2001/REC-SVG-20010904/DTD/svg10.dtd">
<svg version="1.0" xmlns="http://www.w3.org/2000/svg"
 width="884.000000pt" height="884.000000pt" viewBox="0 0 884.000000 884.000000"
 preserveAspectRatio="xMidYMid meet">

<g transform="translate(0.000000,884.000000) scale(0.100000,-0.100000)"
fill="#000000" stroke="none">
<path d="M4150 7583 c-344 -52 -631 -138 -882 -264 -314 -157 -656 -434 -853
-689 -64 -83 -216 -332 -278 -455 -116 -232 -164 -493 -154 -840 7 -227 22
-317 88 -528 43 -135 81 -221 129 -292 16 -23 29 -50 31 -60 2 -11 -22 -72
-53 -135 -86 -174 -99 -222 -105 -380 -6 -159 9 -255 63 -397 46 -121 93 -191
195 -290 125 -123 193 -167 323 -208 141 -46 205 -83 287 -164 96 -97 110
-144 120 -411 8 -218 9 -229 41 -330 37 -118 143 -244 318 -380 138 -108 309
-204 425 -238 203 -61 234 -65 523 -70 266 -4 277 -3 405 23 138 28 350 97
452 148 166 83 334 228 436 379 93 138 98 156 113 433 15 262 23 302 87 399
59 88 127 133 309 202 334 128 553 413 593 771 11 94 10 124 -6 238 -19 136
-33 174 -114 316 l-37 67 66 138 c120 252 170 443 190 716 25 348 -40 655
-210 993 -146 291 -398 589 -657 780 -185 136 -513 316 -689 380 -150 54 -418
117 -591 139 -109 15 -491 21 -565 9z m466 -354 c260 -67 474 -298 523 -563
29 -155 5 -322 -66 -458 -54 -106 -104 -170 -176 -229 -47 -38 -142 -101 -157
-104 -3 -1 -20 -10 -39 -22 -45 -28 -202 -58 -213 -41 -5 9 -8 10 -8 1 0 -12
-37 -12 -58 1 -7 4 -12 2 -12 -3 0 -6 -7 -11 -16 -11 -8 0 -12 4 -9 10 3 5 1
18 -4 27 -9 16 -10 15 -8 -7 2 -21 -2 -25 -23 -24 -242 6 -474 163 -594 401
-133 266 -87 591 116 808 70 75 173 151 244 181 137 57 352 72 500 33z m-1197
-126 c21 -44 40 -113 33 -116 -37 -20 -44 -16 -68 38 -32 73 -32 105 -1 105
16 0 28 -9 36 -27z m2045 21 c23 -9 20 -36 -11 -99 -27 -55 -36 -62 -62 -46
-11 7 -11 15 -1 47 34 101 41 111 74 98z m-2319 -380 c23 -9 48 -62 41 -90
-24 -93 -156 -79 -156 17 0 58 58 95 115 73z m2636 -7 c66 -51 36 -147 -46
-147 -71 0 -105 95 -49 139 30 23 71 27 95 8z m-3076 -124 c13 -127 37 -274
52 -320 8 -26 28 -64 44 -84 l28 -37 -29 -38 c-37 -51 -55 -99 -80 -214 -21
-94 -35 -127 -43 -99 -3 8 -14 58 -27 112 -22 99 -55 173 -92 214 l-20 22 25
33 c40 52 66 147 83 301 19 166 19 167 38 167 10 0 16 -16 21 -57z m3469 35
c2 -13 11 -85 20 -160 16 -144 39 -227 80 -289 25 -36 25 -37 5 -55 -33 -29
-68 -115 -92 -222 -13 -57 -27 -103 -33 -103 -5 0 -15 26 -22 58 -28 123 -53
193 -86 242 l-35 52 28 42 c40 58 68 160 86 307 8 68 15 130 15 137 0 22 29
14 34 -9z m-3089 -308 c9 -14 6 -696 -3 -717 -12 -30 -36 -21 -44 17 -9 45
-10 695 -1 703 10 10 41 8 48 -3z m2723 -285 c3 -294 -4 -488 -17 -466 -5 7
-14 11 -22 9 -12 -3 -14 54 -17 362 -1 201 0 371 3 378 3 7 15 12 27 10 l23
-3 3 -290z m-2436 28 c9 -16 48 -107 88 -203 123 -298 135 -339 93 -323 -12 5
-14 3 -8 -8 7 -12 6 -12 -7 -1 -9 7 -37 61 -63 120 -27 59 -79 174 -117 255
-67 142 -69 149 -52 168 24 27 47 24 66 -8z m2149 17 c10 -6 19 -20 19 -31 0
-11 -40 -107 -89 -212 -49 -106 -101 -218 -115 -249 -26 -60 -33 -66 -55 -45
-11 10 -13 10 -7 0 4 -7 2 -13 -3 -13 -6 0 -11 4 -11 10 0 12 101 285 154 414
54 135 65 148 107 126z m-3237 -192 c16 -46 73 -199 127 -341 93 -241 112
-306 90 -292 -5 3 -13 0 -17 -6 -4 -7 -67 109 -145 267 l-139 279 10 50 c5 28
12 67 15 88 3 20 12 37 18 37 7 0 26 -37 41 -82z m4340 -7 l17 -88 -141 -284
c-78 -156 -145 -288 -150 -293 -5 -5 -15 -3 -23 6 -13 13 -9 30 33 144 27 71
88 236 136 367 48 130 93 237 99 237 7 0 19 -37 29 -89z m-2168 -342 c40 -165
103 -330 158 -418 l26 -41 -39 -65 c-55 -92 -116 -235 -148 -348 -15 -53 -30
-97 -33 -97 -3 0 -12 24 -19 53 -25 98 -91 262 -147 360 l-55 99 29 46 c51 84
119 269 152 412 27 117 47 117 76 -1z m1629 38 c41 -59 -1 -137 -74 -137 -92
0 -114 129 -28 165 37 15 80 4 102 -28z m-3200 8 c56 -55 16 -145 -64 -145
-32 0 -44 6 -65 31 -36 43 -31 92 13 126 28 22 89 16 116 -12z m1137 -82 c26
-23 23 -59 -7 -79 -23 -15 -27 -15 -50 0 -27 18 -34 63 -13 84 17 17 48 15 70
-5z m860 5 c31 -24 23 -82 -11 -91 -51 -13 -90 46 -55 84 20 22 43 24 66 7z
m-2665 -173 c51 -131 122 -332 128 -366 6 -33 5 -36 -15 -35 -17 1 -28 16 -49
66 -65 153 -143 371 -137 385 3 10 15 15 28 13 16 -2 28 -18 45 -63z m4467 59
c9 -3 16 -12 16 -20 0 -14 -108 -300 -151 -401 -24 -55 -43 -67 -54 -34 -6 21
35 157 97 321 56 148 56 148 92 134z m-3108 -164 c328 -84 573 -352 633 -694
16 -86 13 -283 -4 -365 -50 -240 -218 -460 -446 -585 -206 -112 -514 -127
-737 -34 -190 79 -352 230 -447 417 -62 123 -86 234 -86 391 0 259 88 470 271
650 176 173 392 256 641 244 52 -2 131 -13 175 -24z m2014 19 c334 -42 625
-291 726 -624 25 -83 28 -104 28 -265 1 -173 0 -176 -32 -270 -18 -52 -54
-131 -80 -175 -56 -95 -189 -233 -282 -293 -236 -153 -588 -174 -833 -50 -208
104 -363 267 -437 460 -51 133 -62 203 -57 368 5 158 17 216 70 340 94 218
284 393 511 471 135 47 238 57 386 38z m-3270 -1346 c33 -100 112 -260 163
-329 79 -108 210 -197 345 -238 121 -35 355 -43 500 -17 73 14 46 -7 -50 -38
-149 -47 -263 -64 -396 -59 -136 6 -198 25 -304 95 -109 72 -194 189 -232 323
-13 44 -55 291 -56 323 0 21 11 0 30 -60z m4206 -97 c-30 -198 -88 -331 -192
-431 -54 -53 -140 -106 -209 -130 -73 -26 -239 -31 -353 -11 -90 16 -318 83
-310 92 3 2 31 -1 64 -8 32 -6 129 -11 214 -11 182 1 264 18 390 84 179 93
297 249 386 509 25 76 30 39 10 -94z m-2063 -181 c40 -289 57 -367 90 -409 47
-58 154 -64 206 -12 25 26 26 29 25 154 0 70 -4 147 -8 170 -3 23 -2 42 2 42
18 0 92 -149 116 -234 20 -66 26 -111 26 -180 0 -146 -33 -238 -118 -328 -135
-145 -279 -122 -352 55 -13 32 -28 56 -33 54 -5 -1 -17 -24 -27 -50 -68 -178
-217 -203 -352 -59 -83 89 -118 185 -118 328 0 68 6 114 24 176 24 81 81 197
113 228 14 13 15 11 9 -20 -3 -19 -8 -87 -12 -150 -10 -169 19 -222 122 -222
75 0 133 57 153 151 11 52 40 251 67 459 9 73 20 130 24 125 4 -4 23 -129 43
-278z m822 -490 c97 -146 150 -278 161 -396 7 -70 0 -124 -15 -114 -5 3 -11 0
-13 -7 -5 -14 -11 2 -93 242 -65 190 -141 367 -186 433 -16 23 -6 17 35 -23
32 -30 81 -91 111 -135z m-1636 58 c-37 -73 -89 -203 -137 -343 -42 -124 -81
-223 -86 -222 -5 2 -12 -2 -17 -9 -14 -23 -22 37 -14 107 19 185 113 379 253
527 30 31 56 57 58 57 2 0 -24 -53 -57 -117z m455 -781 c27 -52 62 -75 118
-79 94 -7 138 36 173 170 l21 80 19 -69 c36 -137 78 -184 165 -184 88 0 137
52 166 177 10 40 21 73 24 73 4 0 10 -25 14 -56 9 -78 42 -152 77 -169 77 -40
140 5 169 123 13 51 24 48 39 -12 17 -67 54 -106 101 -106 53 0 94 36 116 103
l17 52 19 -45 c27 -64 55 -90 95 -90 41 0 75 30 94 83 7 20 16 37 20 37 24 0
14 -414 -10 -458 -5 -8 -13 24 -20 77 -16 113 -40 155 -93 159 -29 2 -40 -2
-57 -24 -19 -24 -21 -39 -21 -176 0 -97 -4 -147 -10 -143 -5 3 -10 -2 -11 -12
0 -10 -9 34 -18 97 -22 142 -35 184 -68 210 -32 25 -85 26 -105 3 -37 -43 -42
-68 -49 -271 -7 -187 -11 -224 -24 -211 -2 3 -9 83 -15 179 -6 96 -15 191 -20
211 -14 51 -44 85 -86 99 -32 11 -40 10 -63 -7 -55 -40 -64 -79 -72 -303 -4
-113 -8 -213 -8 -222 -1 -10 -8 -18 -16 -18 -8 0 -15 1 -15 3 0 1 -5 94 -10
206 -8 183 -11 209 -32 249 -55 106 -190 108 -252 3 -15 -26 -20 -65 -27 -229
-9 -219 -16 -303 -28 -335 -12 -33 -21 58 -31 305 -9 243 -16 274 -80 316 -28
19 -45 23 -82 19 -62 -5 -96 -29 -121 -85 -17 -40 -22 -77 -28 -247 -5 -126
-12 -201 -18 -203 -6 -2 -9 -8 -6 -12 3 -5 1 -11 -4 -14 -10 -7 -18 81 -27
314 -4 91 -11 176 -16 190 -28 75 -106 95 -158 40 -16 -17 -33 -51 -39 -77 -9
-40 -31 -288 -31 -346 0 -9 -4 -17 -9 -17 -6 0 -8 9 -6 20 2 11 0 20 -6 20 -5
0 -9 64 -9 153 -1 83 -5 171 -9 195 -18 90 -95 122 -151 62 -31 -33 -44 -78
-61 -200 -7 -46 -18 -90 -25 -98 -12 -11 -14 12 -14 146 0 146 -2 161 -21 186
-15 19 -30 26 -54 26 -43 0 -69 -32 -85 -103 -18 -85 -33 -138 -36 -134 -9 9
-25 332 -19 395 l7 74 23 -50 c27 -58 57 -82 102 -82 39 0 65 25 88 87 l18 46
18 -48 c27 -70 64 -105 112 -105 52 0 89 38 107 108 8 28 17 52 21 52 4 0 12
-21 18 -47 23 -93 77 -142 140 -128 56 12 92 77 117 210 l7 40 18 -78 c10 -42
25 -90 33 -105z"/>
<path d="M4253 7130 c-257 -76 -444 -297 -468 -556 -17 -185 84 -411 242 -540
72 -58 111 -78 218 -109 199 -57 392 -15 570 125 226 179 296 470 177 732 -55
121 -182 252 -295 306 -132 63 -315 80 -444 42z m337 -60 c158 -46 318 -204
372 -369 26 -77 33 -183 18 -268 -43 -257 -294 -473 -549 -473 -289 1 -517
187 -577 471 -26 124 0 265 71 384 135 225 407 329 665 255z"/>
<path d="M4360 6973 c-32 -16 -36 -23 -44 -75 -5 -34 -13 -58 -20 -58 -24 0
-95 -71 -106 -106 -7 -20 -10 -59 -8 -86 6 -53 40 -99 106 -139 46 -30 41 -44
-17 -44 -82 0 -114 -52 -76 -125 17 -33 70 -76 100 -82 17 -3 21 -13 25 -65 5
-66 9 -74 53 -96 22 -11 38 -13 65 -5 54 14 72 40 72 103 0 49 2 53 31 66 53
21 87 57 104 110 30 90 -10 185 -96 230 -25 12 -39 26 -39 38 0 16 6 18 38 14
53 -7 92 25 92 76 0 48 -26 82 -85 110 -43 20 -45 23 -45 65 0 30 -6 48 -19
60 -29 26 -90 30 -131 9z m94 -49 c3 -9 6 -37 6 -64 0 -46 1 -48 33 -54 17 -3
47 -15 65 -26 42 -26 42 -66 0 -89 -25 -15 -29 -14 -52 8 -31 29 -61 22 -52
-12 3 -12 6 -40 6 -63 0 -38 3 -42 38 -58 76 -35 102 -70 102 -140 0 -57 -40
-107 -100 -125 -37 -11 -40 -14 -41 -49 -1 -39 -6 -78 -14 -99 -2 -7 -17 -13
-33 -13 -25 0 -30 5 -36 31 -3 17 -6 49 -6 71 0 33 -4 41 -31 56 -82 45 -94
57 -94 92 0 40 25 52 53 27 9 -9 30 -19 45 -22 l28 -7 -3 68 -3 68 -45 26
c-118 69 -118 192 1 244 l49 21 0 52 c0 39 4 55 18 62 26 16 59 13 66 -5z"/>
<path d="M4326 6695 c-23 -23 -20 -40 11 -65 l27 -21 9 23 c20 56 -11 98 -47
63z"/>
<path d="M4450 6435 c0 -60 9 -67 48 -39 12 8 22 26 22 39 0 13 -10 31 -22 39
-39 28 -48 21 -48 -39z"/>
<path d="M4058 6540 c22 -9 31 -30 12 -30 -5 0 -10 -5 -10 -12 0 -8 6 -6 16 4
22 21 11 48 -18 47 l-23 0 23 -9z"/>
<path d="M4851 6534 c0 -11 3 -14 6 -6 3 7 2 16 -1 19 -3 4 -6 -2 -5 -13z"/>
<path d="M4900 6530 c0 -5 -7 -10 -15 -10 -8 0 -15 -4 -15 -10 0 -5 5 -10 10
-10 6 0 13 -1 17 -2 3 -2 8 7 9 20 2 12 2 22 -1 22 -3 0 -5 -4 -5 -10z"/>
<path d="M4025 6450 c-3 -5 -1 -10 4 -10 6 0 11 5 11 10 0 6 -2 10 -4 10 -3 0
-8 -4 -11 -10z"/>
<path d="M3212 5006 c-101 -25 -201 -83 -283 -165 -134 -134 -183 -251 -184
-441 0 -92 4 -129 22 -185 62 -195 229 -362 420 -420 130 -40 302 -27 423 31
173 83 288 212 342 384 30 97 32 272 4 365 -61 204 -227 370 -426 424 -86 24
-233 27 -318 7z m273 -71 c283 -72 453 -336 405 -630 -25 -154 -147 -310 -301
-385 -90 -44 -125 -48 -122 -15 1 18 0 18 -10 4 -7 -9 -20 -15 -29 -13 -10 1
-21 -3 -25 -8 -3 -6 -1 -8 5 -4 6 3 13 2 16 -3 10 -15 -53 -21 -126 -11 -238
34 -413 200 -464 442 -57 270 127 558 399 624 72 17 182 17 252 -1z"/>
<path d="M3249 4852 c-165 -44 -300 -183 -339 -351 -46 -197 66 -421 255 -511
58 -28 83 -34 162 -38 151 -8 257 32 361 134 76 76 117 158 133 265 10 68 9
86 -10 159 -25 101 -58 158 -130 231 -114 113 -269 153 -432 111z m227 -47
c128 -38 234 -141 274 -266 50 -155 3 -332 -118 -440 -82 -72 -144 -94 -267
-93 -128 0 -192 24 -273 99 -172 159 -186 403 -33 576 100 113 277 166 417
124z"/>
<path d="M3330 4737 c-29 -10 -36 -19 -45 -55 -7 -31 -19 -47 -41 -61 -45 -27
-64 -59 -64 -105 0 -48 27 -90 81 -128 46 -33 51 -51 10 -35 -21 8 -36 7 -60
-2 -26 -11 -31 -19 -31 -48 0 -26 8 -43 34 -69 19 -19 41 -34 49 -34 11 0 18
-14 23 -45 7 -52 37 -95 64 -95 54 0 90 41 90 103 0 27 6 36 37 52 24 13 42
34 55 62 27 62 11 116 -53 177 -27 25 -49 55 -49 65 0 16 -18 31 -36 31 -2 0
-4 -21 -4 -47 0 -48 0 -48 53 -73 l52 -25 0 -57 c0 -63 -21 -96 -76 -118 -25
-11 -28 -18 -31 -64 -3 -47 -5 -51 -28 -51 -23 0 -25 4 -28 51 -3 49 -4 51
-46 72 -31 14 -47 30 -55 52 l-11 32 33 -6 c17 -4 44 -9 60 -13 30 -6 32 1 21
69 -5 28 -13 39 -36 49 -89 37 -91 150 -4 179 31 10 35 15 38 52 6 82 68 74
68 -8 0 -42 2 -44 28 -44 17 0 37 -9 48 -21 17 -19 18 -22 2 -50 -16 -28 -16
-29 2 -29 19 0 60 32 60 48 0 20 -43 73 -70 87 -20 11 -30 23 -30 39 0 28 -27
62 -55 69 -11 3 -36 0 -55 -6z"/>
<path d="M3290 4510 c0 -18 6 -33 15 -37 20 -7 23 -3 31 35 6 29 4 32 -20 32
-22 0 -26 -4 -26 -30z"/>
<path d="M3100 4496 c0 -9 5 -16 10 -16 6 0 10 4 10 9 0 6 -4 13 -10 16 -5 3
-10 -1 -10 -9z"/>
<path d="M3030 4415 c-10 -12 -10 -15 3 -15 9 0 19 5 22 10 10 16 43 12 53 -7
9 -15 11 -14 20 4 10 19 8 20 -37 22 -33 1 -52 -4 -61 -14z"/>
<path d="M3700 4420 c0 -5 5 -10 10 -10 6 0 10 5 10 10 0 6 -4 10 -10 10 -5 0
-10 -4 -10 -10z"/>
<path d="M3388 4335 c4 -37 21 -45 42 -20 10 13 10 19 -5 35 -28 31 -42 25
-37 -15z"/>
<path d="M3756 4103 c-6 -14 -5 -15 5 -6 7 7 10 15 7 18 -3 3 -9 -2 -12 -12z"/>
<path d="M3228 3923 c7 -3 16 -2 19 1 4 3 -2 6 -13 5 -11 0 -14 -3 -6 -6z"/>
<path d="M3295 3900 c-4 -6 3 -10 14 -10 25 0 27 6 6 13 -8 4 -17 2 -20 -3z"/>
<path d="M3345 3890 c3 -5 12 -7 20 -3 21 7 19 13 -6 13 -11 0 -18 -4 -14 -10z"/>
<path d="M5310 4996 c-109 -33 -171 -68 -250 -143 -79 -74 -129 -152 -163
-251 -18 -56 -22 -89 -22 -202 0 -115 3 -145 23 -201 48 -140 150 -266 274
-341 180 -107 390 -114 583 -19 150 74 264 207 320 371 24 72 28 101 28 190 0
91 -4 117 -30 193 -17 48 -46 112 -64 143 -44 73 -148 170 -226 212 -137 72
-328 92 -473 48z m305 -61 c103 -27 165 -63 245 -144 112 -113 160 -226 160
-379 0 -46 -7 -110 -15 -143 -45 -173 -234 -359 -390 -384 -11 -2 -44 -8 -74
-14 -51 -11 -144 -7 -165 6 -5 4 -22 7 -37 8 -15 2 -60 20 -99 41 -180 96
-290 279 -290 481 0 146 39 251 136 367 39 47 134 115 189 136 110 42 238 51
340 25z"/>
<path d="M5373 4855 c-85 -23 -154 -64 -215 -127 -141 -143 -176 -336 -94
-504 124 -250 377 -344 615 -228 188 92 298 297 262 487 -19 98 -74 198 -143
262 -33 31 -77 64 -98 75 -95 48 -225 62 -327 35z m290 -73 c80 -40 148 -111
190 -200 30 -63 32 -74 32 -177 -1 -97 -4 -117 -27 -166 -35 -77 -117 -158
-203 -200 -65 -32 -76 -34 -170 -34 -94 0 -105 2 -170 34 -89 44 -154 111
-202 208 -36 72 -38 82 -38 168 1 83 4 98 33 157 82 166 224 252 409 245 67
-3 92 -9 146 -35z"/>
<path d="M5430 4720 c-11 -11 -20 -33 -20 -50 0 -18 -5 -30 -13 -30 -20 0 -76
-59 -83 -87 -4 -13 2 -47 12 -75 15 -40 29 -59 62 -81 48 -32 56 -53 16 -43
-14 4 -41 2 -60 -4 -30 -10 -34 -16 -34 -45 0 -39 50 -105 80 -105 14 0 18
-11 22 -50 6 -60 28 -85 78 -86 44 -1 61 17 68 71 4 37 10 48 44 71 21 15 44
36 50 47 45 84 15 178 -69 213 -40 17 -44 38 -6 31 43 -8 83 18 83 52 0 35
-44 91 -70 91 -13 0 -20 10 -25 40 -4 24 -14 44 -25 50 -32 17 -88 12 -110
-10z m90 -64 c0 -42 1 -44 35 -50 58 -11 85 -75 39 -93 -10 -4 -20 0 -26 10
-5 10 -20 17 -33 17 -22 0 -25 -4 -25 -37 0 -34 5 -41 48 -68 58 -37 83 -95
60 -142 -11 -24 -61 -66 -89 -75 -5 -2 -12 -27 -16 -56 -5 -47 -8 -53 -27 -50
-18 3 -21 11 -24 55 -3 50 -4 52 -48 73 -51 25 -72 54 -53 76 15 18 58 18 65
-1 4 -8 15 -15 25 -15 16 0 19 8 19 49 0 38 -4 51 -17 56 -28 9 -83 62 -93 90
-17 44 17 96 70 108 20 5 25 13 28 43 3 47 8 54 38 54 22 0 24 -4 24 -44z"/>
<path d="M5432 4541 c-19 -12 -11 -55 11 -59 14 -3 17 4 17 32 0 37 -5 42 -28
27z"/>
<path d="M5516 4373 c-3 -3 -6 -21 -6 -40 0 -26 4 -33 20 -33 21 0 45 34 35
50 -9 15 -42 30 -49 23z"/>
<path d="M5215 4499 c-10 -15 3 -25 16 -12 7 7 7 13 1 17 -6 3 -14 1 -17 -5z"/>
<path d="M5151 4484 c0 -11 3 -14 6 -6 3 7 2 16 -1 19 -3 4 -6 -2 -5 -13z"/>
<path d="M5148 4422 c-12 -13 -9 -14 25 -8 34 6 39 5 44 -14 4 -16 8 -18 19
-9 23 19 16 39 -13 40 -16 0 -36 2 -45 4 -9 2 -23 -4 -30 -13z"/>
<path d="M5778 4418 c9 -9 15 -9 24 0 9 9 7 12 -12 12 -19 0 -21 -3 -12 -12z"/>
<path d="M5830 4420 c0 -5 5 -10 11 -10 5 0 7 5 4 10 -3 6 -8 10 -11 10 -2 0
-4 -4 -4 -10z"/>
<path d="M5834 4058 l-19 -23 23 19 c12 11 22 21 22 23 0 8 -8 2 -26 -19z"/>
</g>
</svg>
